<svg id="Capa_1" data-name="Capa 1" xmlns="http://www.w3.org/2000/svg" viewBox="0 0 196.35 147.51"><defs><style>.cls-1{fill:#f0c3c0;}.cls-2{fill:#191c30;}.cls-10,.cls-11,.cls-12,.cls-13,.cls-3,.cls-4,.cls-8,.cls-9{fill:none;}.cls-13,.cls-3,.cls-4{stroke:#fff;}.cls-11,.cls-3{stroke-miterlimit:10;}.cls-3,.cls-4{stroke-width:0.52px;}.cls-10,.cls-12,.cls-13,.cls-4,.cls-8,.cls-9{stroke-linecap:round;stroke-linejoin:round;}.cls-5{fill:#c7a58c;}.cls-6{fill:#9da4cb;}.cls-7{fill:#fff;}.cls-10,.cls-11,.cls-12,.cls-8,.cls-9{stroke:#191c30;}.cls-8{stroke-width:0.27px;}.cls-9{stroke-width:0.6px;}.cls-10{stroke-width:0.75px;}.cls-11,.cls-12{stroke-width:0.97px;}.cls-13{stroke-width:0.51px;}</style></defs><path class="cls-1" d="M295.52,434.51a2.69,2.69,0,0,1-.28.23,2.75,2.75,0,0,1-.34.3,45,45,0,0,1-7.73,4.93l-.4.2a64.79,64.79,0,0,1-9.81,4l-.42.14a79,79,0,0,1-10,2.38l-.44.07a86.49,86.49,0,0,1-9.59,1l-.43,0-1.51.07a54.71,54.71,0,0,1-7.24-.27l-.45-.05a71.9,71.9,0,0,1-9.62-1.74l-.44-.11c-3-.75-5.88-1.66-8.56-2.62a3.52,3.52,0,0,1-.42-.15c-2.72-1-5.23-2-7.45-3l-.41-.18c-2.64-1.18-4.85-2.28-6.46-3.13l-.4-.21c-1.68-.9-2.62-1.46-2.62-1.46l4.15-11.34.15-.43,3.3-9,72.09-3.69L293,423.19l.1.44Z" transform="translate(-159.47 -300.39)"/><circle class="cls-2" cx="94.65" cy="73.13" r="54.31"/><path class="cls-3" d="M217.15,417.54s33.73,29.49,74.89,0" transform="translate(-159.47 -300.39)"/><path class="cls-3" d="M216.07,420.47s35.64,30.3,76.8.81" transform="translate(-159.47 -300.39)"/><path class="cls-4" d="M212.26,432.44a15.09,15.09,0,0,0,8.13-7.15c.28-.53.38-1.41-.21-1.54a15.62,15.62,0,0,0-2.82,8.66,3.66,3.66,0,0,0,1,3c1,.87,2.64.49,3.83-.16a10.46,10.46,0,0,0,4.88-6c.16-.52.14-1.31-.41-1.39a13.1,13.1,0,0,0-1.25,8.12,3.81,3.81,0,0,0,1.12,2.37,3.41,3.41,0,0,0,2.42.59,7.07,7.07,0,0,0,6.13-8,3.42,3.42,0,0,0-1.32,2.24,11.45,11.45,0,0,0-.62,4.8,3.93,3.93,0,0,0,3,3.42,3.85,3.85,0,0,0,3.15-1.21,10.94,10.94,0,0,0,1.91-2.91c.68-1.34,1.3-3,.38-4.22a9.49,9.49,0,0,0-1.16,4.72,5.26,5.26,0,0,0,.73,2.78c1.31,2,4.57,2.13,6.34.48a6.17,6.17,0,0,0,1.18-6.71c-1,.92-1,2.51-.76,3.86a8.71,8.71,0,0,0,1.26,3.52,4,4,0,0,0,3.13,1.86,4.55,4.55,0,0,0,2.38-.75c2.65-1.6,4.18-5.34,2.51-7.95a2.73,2.73,0,0,0-.41,1.16,7,7,0,0,0,.9,5.48c1.15,1.52,3.65,2.07,5,.7,1.61-1.66,2-3.59,2.35-5.88.15-1.05,0-2.37-1-2.79-1,1-.62,2.69-.06,4A7.67,7.67,0,0,0,265.5,440a4.47,4.47,0,1,0,5-7.26,13.4,13.4,0,0,0,1,4.92,4.59,4.59,0,0,0,3.89,2.79,4.76,4.76,0,0,0,3.31-1.67,8.1,8.1,0,0,0,1.54-8.45,1.73,1.73,0,0,0-.66-.88c-.68-.38-1.56.25-1.73,1a3.55,3.55,0,0,0,.48,2.23c.92,2,2.41,4.11,4.58,4.15s3.72-2,4.44-4.06a7.82,7.82,0,0,0,.49-3.88,4.16,4.16,0,0,0-2.18-3.12,5.19,5.19,0,0,0,8.9,4.84" transform="translate(-159.47 -300.39)"/><path class="cls-5" d="M281.22,379.21c0,.08-.08.17-.12.25-7.27.62-16.38,1-26.38,1-9,0-17.3-.29-24.17-.8l-.13-.25c6.7.51,15,.83,24.3.83C265.12,380.21,274.15,379.82,281.22,379.21Z" transform="translate(-159.47 -300.39)"/><path class="cls-5" d="M283.83,366.05a28.65,28.65,0,1,1-56.22-7.79,28.65,28.65,0,0,0,55.14,0A28.62,28.62,0,0,1,283.83,366.05Z" transform="translate(-159.47 -300.39)"/><path class="cls-6" d="M254.12,370.67c-6.77,0-13.13.16-18.78.46l.23.21c5.49-.28,11.72-.45,18.55-.45,7.67,0,14.6.21,20.54.57l.24-.22C268.76,370.87,261.7,370.67,254.12,370.67Zm29.1,1.23a2,2,0,0,1-.05.24c9,.9,14.18,2.18,14.18,3.42s-6.2,2.75-16.73,3.65c-7.07.61-16.09,1-26.5,1-9.35,0-17.6-.32-24.3-.83-11.86-.89-18.94-2.38-18.94-3.82s6-2.71,16.26-3.62l0-.24c-10.07.89-16.43,2.27-16.43,3.86s7.59,3.21,19.29,4.07c6.87.51,15.16.8,24.17.8,10,0,19.11-.35,26.38-1,10.44-.89,17.08-2.29,17.08-3.9S292.08,372.79,283.22,371.9Z" transform="translate(-159.47 -300.39)"/><path class="cls-6" d="M261.7,349a5.53,5.53,0,1,1-5.53-5.53A5.53,5.53,0,0,1,261.7,349Z" transform="translate(-159.47 -300.39)"/><path class="cls-6" d="M257.83,359.92a1.66,1.66,0,1,1-1.66-1.66A1.66,1.66,0,0,1,257.83,359.92Z" transform="translate(-159.47 -300.39)"/><path class="cls-6" d="M257.83,366.18a1.66,1.66,0,1,1-1.66-1.66A1.66,1.66,0,0,1,257.83,366.18Z" transform="translate(-159.47 -300.39)"/><path class="cls-6" d="M257.83,403a1.66,1.66,0,1,1-1.66-1.66A1.66,1.66,0,0,1,257.83,403Z" transform="translate(-159.47 -300.39)"/><path class="cls-6" d="M257.83,409.25a1.66,1.66,0,1,1-1.66-1.66A1.66,1.66,0,0,1,257.83,409.25Z" transform="translate(-159.47 -300.39)"/><path class="cls-6" d="M257.83,375.18a1.66,1.66,0,1,1-1.66-1.66A1.66,1.66,0,0,1,257.83,375.18Z" transform="translate(-159.47 -300.39)"/><path class="cls-7" d="M290.66,407.87l4.15-6.07,4-6.11a.27.27,0,0,1,.36-.07.27.27,0,0,1,.11.28,20.92,20.92,0,0,1-3.37,6.68,38,38,0,0,1-4.86,5.66.28.28,0,0,1-.42-.37Z" transform="translate(-159.47 -300.39)"/><path class="cls-7" d="M300.91,393.4a.8.8,0,1,1-.8-.79A.8.8,0,0,1,300.91,393.4Z" transform="translate(-159.47 -300.39)"/><path class="cls-7" d="M205.16,376a57.09,57.09,0,0,1,1.11-11.07,65,65,0,0,1,3-10.74,50.34,50.34,0,0,1,5.08-10,38.32,38.32,0,0,1,7.47-8.29.24.24,0,0,1,.35,0,.27.27,0,0,1,0,.31l0,0c-1.09,1.49-2.38,2.77-3.34,4.33-.51.75-1.07,1.46-1.54,2.23l-1.4,2.32a71.18,71.18,0,0,0-4.67,9.77A95.31,95.31,0,0,0,208,365.28,102.14,102.14,0,0,0,205.84,376v0a.34.34,0,0,1-.38.29A.34.34,0,0,1,205.16,376Z" transform="translate(-159.47 -300.39)"/><path class="cls-7" d="M205.68,380.5l.72,4.83.79,4.8a.17.17,0,0,1-.14.2.19.19,0,0,1-.18-.09,14,14,0,0,1-1.38-4.78,24.81,24.81,0,0,1-.18-4.95.2.2,0,0,1,.2-.18A.19.19,0,0,1,205.68,380.5Z" transform="translate(-159.47 -300.39)"/><circle class="cls-7" cx="48.52" cy="93.35" r="0.46"/><path class="cls-1" d="M254.49,334.6l1.15.58-.94.56a2.53,2.53,0,0,0-1.14,1.41L253,338.8l-.85-1.89a1.88,1.88,0,0,0-.88-.92l-1.25-.63,1.17-.69a2,2,0,0,0,.86-1l.78-2.17.7,2A2,2,0,0,0,254.49,334.6Z" transform="translate(-159.47 -300.39)"/><path class="cls-1" d="M282.06,343.81l1.54.78-1.27.75a3.43,3.43,0,0,0-1.53,1.9l-.73,2.22-1.15-2.55a2.58,2.58,0,0,0-1.19-1.23l-1.67-.85,1.57-.92a2.66,2.66,0,0,0,1.15-1.39l1.05-2.91.95,2.74A2.59,2.59,0,0,0,282.06,343.81Z" transform="translate(-159.47 -300.39)"/><path class="cls-1" d="M296.45,362.18l.77.39-.63.37a1.76,1.76,0,0,0-.77.95l-.36,1.11-.58-1.27a1.27,1.27,0,0,0-.59-.62l-.83-.42.78-.46a1.31,1.31,0,0,0,.57-.7l.53-1.45.47,1.37A1.28,1.28,0,0,0,296.45,362.18Z" transform="translate(-159.47 -300.39)"/><path class="cls-1" d="M238.53,400.21l.77.39-.63.38a1.69,1.69,0,0,0-.77.95l-.36,1.11-.58-1.28a1.31,1.31,0,0,0-.59-.62l-.83-.42.78-.46a1.29,1.29,0,0,0,.57-.69l.53-1.46.47,1.37A1.28,1.28,0,0,0,238.53,400.21Z" transform="translate(-159.47 -300.39)"/><path class="cls-1" d="M233.77,341.56l.71.36-.59.34a1.61,1.61,0,0,0-.7.88l-.34,1-.54-1.18a1.15,1.15,0,0,0-.54-.57L231,342l.73-.43a1.19,1.19,0,0,0,.53-.64l.49-1.35.44,1.27A1.23,1.23,0,0,0,233.77,341.56Z" transform="translate(-159.47 -300.39)"/><path class="cls-1" d="M239.38,355.84l.5.25-.41.25a1.1,1.1,0,0,0-.5.62l-.24.73-.38-.84a.8.8,0,0,0-.39-.4l-.54-.28.51-.3a.84.84,0,0,0,.38-.45l.34-1,.31.9A.83.83,0,0,0,239.38,355.84Z" transform="translate(-159.47 -300.39)"/><path class="cls-1" d="M276.79,410.67l.51.26-.42.24a1.14,1.14,0,0,0-.5.62l-.24.73-.38-.84a.87.87,0,0,0-.38-.4l-.55-.28.51-.3a.84.84,0,0,0,.38-.45l.34-.95.31.89A.9.9,0,0,0,276.79,410.67Z" transform="translate(-159.47 -300.39)"/><path class="cls-1" d="M286,402.5l.5.25-.41.25a1.1,1.1,0,0,0-.5.62l-.24.73-.38-.84a.8.8,0,0,0-.39-.4l-.54-.28.51-.3a.84.84,0,0,0,.38-.45l.34-1,.31.9A.83.83,0,0,0,286,402.5Z" transform="translate(-159.47 -300.39)"/><path class="cls-1" d="M246,415.7l.5.25-.41.25a1.1,1.1,0,0,0-.5.62l-.24.72-.38-.83a.82.82,0,0,0-.38-.4L244,416l.51-.3a.9.9,0,0,0,.38-.46l.34-.95.31.9A.83.83,0,0,0,246,415.7Z" transform="translate(-159.47 -300.39)"/><path class="cls-1" d="M304.09,380.37l.5.26-.42.25a1.15,1.15,0,0,0-.5.62l-.24.72-.37-.83a.86.86,0,0,0-.39-.41l-.54-.27.51-.3A.88.88,0,0,0,303,380l.35-.95.31.9A.81.81,0,0,0,304.09,380.37Z" transform="translate(-159.47 -300.39)"/><path class="cls-1" d="M223,400.34l.51.25-.42.25a1.18,1.18,0,0,0-.5.62l-.24.72-.37-.83a.84.84,0,0,0-.39-.4l-.55-.28.52-.3a.85.85,0,0,0,.37-.46l.35-1,.31.9A.85.85,0,0,0,223,400.34Z" transform="translate(-159.47 -300.39)"/><path class="cls-1" d="M265.13,339.61a.88.88,0,1,0,.87-.88A.88.88,0,0,0,265.13,339.61Z" transform="translate(-159.47 -300.39)"/><path class="cls-1" d="M217.15,388.48a.88.88,0,1,0,.88-.87A.87.87,0,0,0,217.15,388.48Z" transform="translate(-159.47 -300.39)"/><path class="cls-1" d="M275.19,399a.88.88,0,1,0,.87-.88A.88.88,0,0,0,275.19,399Z" transform="translate(-159.47 -300.39)"/><path class="cls-1" d="M290.75,344.54a.88.88,0,1,0,.88-.88A.87.87,0,0,0,290.75,344.54Z" transform="translate(-159.47 -300.39)"/><path class="cls-1" d="M290.75,387.6a.88.88,0,1,0,.88-.87A.87.87,0,0,0,290.75,387.6Z" transform="translate(-159.47 -300.39)"/><path class="cls-1" d="M239.88,331a.44.44,0,1,0,.44-.43A.44.44,0,0,0,239.88,331Z" transform="translate(-159.47 -300.39)"/><circle class="cls-1" cx="106.1" cy="26.75" r="0.44"/><circle class="cls-1" cx="106.1" cy="108.86" r="0.44"/><circle class="cls-1" cx="69.51" cy="108.86" r="0.44"/><path class="cls-1" d="M219.74,354.46a.44.44,0,1,0,.44-.43A.44.44,0,0,0,219.74,354.46Z" transform="translate(-159.47 -300.39)"/><path class="cls-1" d="M319.54,416.55l9.38,11,3.95,4.61s2.59,7.3,1.46,9.05a.76.76,0,0,1-.11.14c-1.39,1.45-16.13,6.79-18.61,5.45-.65-.35-.7-2.5-.42-5.5.21-2.3.6-5.09,1.09-8C317.6,425.24,319.54,416.55,319.54,416.55Z" transform="translate(-159.47 -300.39)"/><path class="cls-7" d="M319.54,416.55l9.38,11a13.6,13.6,0,0,1,.43,3.34,3.35,3.35,0,0,1-.62,2.18,3.77,3.77,0,0,1-1.35,1,6.54,6.54,0,0,1-2.82.63,4.85,4.85,0,0,1-4.45-2.73,2.41,2.41,0,0,1-1.63,1.89,2.79,2.79,0,0,1-1.43-.16,5,5,0,0,1-.77-.35C317.6,425.24,319.54,416.55,319.54,416.55Z" transform="translate(-159.47 -300.39)"/><path class="cls-5" d="M332.93,440.51a10,10,0,0,1,1.4.67.76.76,0,0,1-.11.14c-1.39,1.45-16.13,6.79-18.61,5.45-.65-.35-.7-2.5-.42-5.5a12,12,0,0,1,1.46-1,11.8,11.8,0,0,1,4.13-1.44,19.7,19.7,0,0,1,5,0A29.15,29.15,0,0,1,332.93,440.51Z" transform="translate(-159.47 -300.39)"/><path class="cls-2" d="M321.17,442.73a2.2,2.2,0,0,0,.67.22,7.42,7.42,0,0,0,4.83-.53.92.92,0,0,0,.32-.26c.15-.26-.1-.57-.38-.75a4.8,4.8,0,0,0-2-.59,7.24,7.24,0,0,0-1.8,0,4.14,4.14,0,0,0-1.57.55A.76.76,0,0,0,321.17,442.73Z" transform="translate(-159.47 -300.39)"/><path class="cls-2" d="M319,430.46a.38.38,0,0,0,.17.08.43.43,0,0,0,.44-.3.9.9,0,0,0,0-.43,2,2,0,0,0-.4-.81c-.35-.46-.63-.47-.75.09A1.32,1.32,0,0,0,319,430.46Z" transform="translate(-159.47 -300.39)"/><path class="cls-2" d="M322,427.86a.26.26,0,0,0,0,.15c0,.17.32.21.53.18a1.37,1.37,0,0,0,.49-.18,2.3,2.3,0,0,0,.7-.65c.35-.46.22-.67-.44-.5S322.15,427.37,322,427.86Z" transform="translate(-159.47 -300.39)"/><path class="cls-2" d="M319.6,426.43a.6.6,0,0,0,.19.06.38.38,0,0,0,.36-.35.88.88,0,0,0,0-.43,2.11,2.11,0,0,0-.56-.75c-.44-.41-.72-.38-.72.18A1.38,1.38,0,0,0,319.6,426.43Z" transform="translate(-159.47 -300.39)"/><path class="cls-2" d="M320.81,423.51a.27.27,0,0,0,0,.15c.07.16.35.17.55.12a1.37,1.37,0,0,0,.45-.23,2.26,2.26,0,0,0,.59-.73c.26-.5.1-.69-.52-.45S320.83,423,320.81,423.51Z" transform="translate(-159.47 -300.39)"/><path class="cls-2" d="M324,430.22a1.25,1.25,0,0,0-.19,0c-.19.07-.19.29-.11.45a1.13,1.13,0,0,0,.3.36,3.11,3.11,0,0,0,.94.43c.63.19.85.06.52-.43A1.87,1.87,0,0,0,324,430.22Z" transform="translate(-159.47 -300.39)"/><path class="cls-1" d="M322.35,416l6.17,12.36,2.59,5.19s6.12,5.78,8.56,6h.21c2.27-.13,15.95-7.05,15.93-9.46,0-.62-2.2-1.85-5.46-3.32-2.49-1.13-5.61-2.41-8.85-3.68C332.41,419.47,322.35,416,322.35,416Z" transform="translate(-159.47 -300.39)"/><path class="cls-7" d="M322.35,416l6.17,12.36a20,20,0,0,0,3.22,2.13,5.74,5.74,0,0,0,2.6.8,4.94,4.94,0,0,0,1.76-.37,5.25,5.25,0,0,0,2.21-1.54,3.32,3.32,0,0,0-.36-4.49c.95.26,2.12.49,2.86-.05a1.7,1.7,0,0,0,.62-1.05,2.48,2.48,0,0,0,.07-.71C332.41,419.47,322.35,416,322.35,416Z" transform="translate(-159.47 -300.39)"/><path class="cls-5" d="M339.76,438.19a5.74,5.74,0,0,0-.09,1.31h.21c2.27-.13,15.95-7.05,15.93-9.46,0-.62-2.2-1.85-5.46-3.32a13.11,13.11,0,0,0-1.82.44,11,11,0,0,0-3.78,2,12.74,12.74,0,0,0-2.74,3.39A17,17,0,0,0,339.76,438.19Z" transform="translate(-159.47 -300.39)"/><path class="cls-2" d="M348.56,431.54a1.27,1.27,0,0,1-.15.57,5.41,5.41,0,0,1-3.22,2.94,1.33,1.33,0,0,1-.45.07.7.7,0,0,1-.56-.67,2.92,2.92,0,0,1,.5-1.68,4.5,4.5,0,0,1,1-1.22,3.67,3.67,0,0,1,1.44-.75C347.77,430.61,348.52,430.91,348.56,431.54Z" transform="translate(-159.47 -300.39)"/><path class="cls-2" d="M337,423.31a.29.29,0,0,1,0,.16c-.08.16-.35.18-.55.12a1.27,1.27,0,0,1-.47-.22,2.29,2.29,0,0,1-.61-.71c-.28-.49-.13-.69.5-.46S337,422.82,337,423.31Z" transform="translate(-159.47 -300.39)"/><path class="cls-2" d="M332.67,423.89a.91.91,0,0,1,.17.09c.14.12,0,.33-.12.45a1.37,1.37,0,0,1-.45.23,3.45,3.45,0,0,1-1.07.11c-.67,0-.81-.22-.27-.57A2.21,2.21,0,0,1,332.67,423.89Z" transform="translate(-159.47 -300.39)"/><path class="cls-2" d="M332.55,421.47a.38.38,0,0,1-.05.15c-.1.15-.38.13-.57.06a1.35,1.35,0,0,1-.41-.28,2,2,0,0,1-.46-.78c-.19-.53,0-.7.58-.39S332.6,421,332.55,421.47Z" transform="translate(-159.47 -300.39)"/><path class="cls-2" d="M328.85,420.66a.53.53,0,0,1,.15.11c.12.14,0,.33-.19.43a1.7,1.7,0,0,1-.49.18,3.56,3.56,0,0,1-1.08,0c-.66-.1-.77-.31-.17-.6A2.25,2.25,0,0,1,328.85,420.66Z" transform="translate(-159.47 -300.39)"/><path class="cls-2" d="M334,426.52a.49.49,0,0,1,.13-.12.47.47,0,0,1,.53.18.94.94,0,0,1,.2.4,1.85,1.85,0,0,1-.06.87c-.15.52-.42.6-.75.11A1.25,1.25,0,0,1,334,426.52Z" transform="translate(-159.47 -300.39)"/><path class="cls-8" d="M311.89,414a4.09,4.09,0,0,1,4.41-1.6,7.38,7.38,0,0,1,4.27,2.46" transform="translate(-159.47 -300.39)"/><path class="cls-8" d="M324.5,408.19s-3.15,0-3.75,2.45a5.05,5.05,0,0,0,.81,4.18" transform="translate(-159.47 -300.39)"/><path class="cls-2" d="M326,428.84c1.74,3.21,3.42,7.09,6.79,10,1.07.91,3.05.49,3.2-.74v0a4.49,4.49,0,0,0-.66-2.42,138.81,138.81,0,0,0-8.83-14.9c-.81-1.22-1.79-3.28-4-2.32-1.43.63.94,5.33,1.74,7.1C324.74,426.57,325.27,427.52,326,428.84Z" transform="translate(-159.47 -300.39)"/><path class="cls-2" d="M324.16,416c.89,1.39.63,2.93-.58,3.43a3.39,3.39,0,0,1-3.82-1.6c-.89-1.39-.63-2.93.58-3.43A3.39,3.39,0,0,1,324.16,416Z" transform="translate(-159.47 -300.39)"/><path class="cls-9" d="M299.09,307.33s29.32,25.31,36.12,40" transform="translate(-159.47 -300.39)"/><path class="cls-2" d="M310.34,317.16S294.91,298.44,293,300.58,310.34,317.16,310.34,317.16Z" transform="translate(-159.47 -300.39)"/><path class="cls-2" d="M315.49,322.34S295.39,310,293.79,313,315.49,322.34,315.49,322.34Z" transform="translate(-159.47 -300.39)"/><path class="cls-2" d="M321.29,328.64s-19-8.4-20-5.56S321.29,328.64,321.29,328.64Z" transform="translate(-159.47 -300.39)"/><path class="cls-2" d="M321.32,329.42s-1-20.73-4-20.39S321.32,329.42,321.32,329.42Z" transform="translate(-159.47 -300.39)"/><path class="cls-2" d="M328.22,336.75s-19-8.41-20-5.56S328.22,336.75,328.22,336.75Z" transform="translate(-159.47 -300.39)"/><path class="cls-2" d="M328.26,337.52s-1-20.72-4-20.38S328.26,337.52,328.26,337.52Z" transform="translate(-159.47 -300.39)"/><path class="cls-2" d="M315.44,322.36s-5.42-22.95-8.71-21.94S315.44,322.36,315.44,322.36Z" transform="translate(-159.47 -300.39)"/><path class="cls-2" d="M172.52,402.15a2.56,2.56,0,0,1,0,.39,2.75,2.75,0,0,1-.37,1.33l-.06.11h0l0,.06-.08.11a2.35,2.35,0,0,1-.19.25c-.07.09-.14.16-.21.24a13.73,13.73,0,0,1-2.22,1.62c-.2.14-.4.27-.6.42l-.09.06a17.53,17.53,0,0,0-1.85,1.6c-.4.4-.77.81-1.16,1.21h0l-.11.12-.12.12-.4.41-.29.26a3.73,3.73,0,0,1-.3.26l-.38.29-.24.17-.23.14a2,2,0,0,1-.32.18l-.11.06h0l-.3.14a2.93,2.93,0,0,1-1.7.21,1.11,1.11,0,0,1-.26-.07l-.09,0-.12-.05-.07,0-.08-.05a1.63,1.63,0,0,1-.7-.77,2.07,2.07,0,0,1-.1-.33,4.76,4.76,0,0,1-.06-.65c0-.35,0-.7-.05-1.05,0-.69-.06-1.39-.1-2.09,0-.32,0-.65,0-1a15.5,15.5,0,0,1,0-1.93,12.37,12.37,0,0,1,.18-1.49,11.51,11.51,0,0,1,.43-1.73,11.16,11.16,0,0,1,.95-2.15,10.93,10.93,0,0,1,1-1.49,3,3,0,0,1,1.92-1.28,1.35,1.35,0,0,1,.6.09l.14.05a3.92,3.92,0,0,1,.7.44l.15.11.43.33,1.17,1c.28.22.56.45.85.66h0c.39.29.78.56,1.18.81.15.1.31.18.47.27a11,11,0,0,1,1.95,1.25A2.58,2.58,0,0,1,172.52,402.15Z" transform="translate(-159.47 -300.39)"/><path class="cls-5" d="M172.55,402.54a2.78,2.78,0,0,1-.37,1.33l-.06.1a4.28,4.28,0,0,1-.52.67,13.73,13.73,0,0,1-2.22,1.62c-.2.14-.4.27-.6.42l-.09.06a17.53,17.53,0,0,0-1.85,1.6c-.4.39-.77.81-1.16,1.21h0l-.11.11a8.71,8.71,0,0,1-2.28,1.84l-.11.06h0l-.3.14a3,3,0,0,1-1.7.21l-.26-.07-.09,0a1.11,1.11,0,0,1-.27-.12c-.07-1.78,1.77-4.1,2.83-5.14l.21-.21h0l.25-.22a16.6,16.6,0,0,1,3.58-2.37l.18-.08c.49-.24,1-.46,1.47-.67a7.82,7.82,0,0,1,1.81-.59.91.91,0,0,1,.23,0h0a3.08,3.08,0,0,1,.61,0A2,2,0,0,1,172.55,402.54Z" transform="translate(-159.47 -300.39)"/><path class="cls-2" d="M167.6,403.65a5.36,5.36,0,0,0-.82,1.66l0,0h0s-.05,0,0-.06a5.53,5.53,0,0,1,.74-1.55Z" transform="translate(-159.47 -300.39)"/><path class="cls-2" d="M171.11,402.36a29.13,29.13,0,0,0-3.8,2.75l-.22.2-.2.17,0,0h0l-.07,0-.06.06h-.07v0a0,0,0,0,1,0-.05l0,0,.1-.09h0v0h0l.22-.19a28.69,28.69,0,0,1,3.83-2.83A.91.91,0,0,1,171.11,402.36Z" transform="translate(-159.47 -300.39)"/><path class="cls-2" d="M172.18,403.87l-.06.1a20.32,20.32,0,0,0-5,1.34,1.19,1.19,0,0,0-.26.11h0l-.09,0h0s0,0,0,0a0,0,0,0,1,0-.07h0l.37-.15h0l.26-.11A19.58,19.58,0,0,1,172.18,403.87Z" transform="translate(-159.47 -300.39)"/><path class="cls-2" d="M163.58,406.33a7.84,7.84,0,0,1,3.08-.86h.12v0h0s0,0,0,0v0a0,0,0,0,0,0,0s0,0,0,0h-.08a7.74,7.74,0,0,0-2.83.73Z" transform="translate(-159.47 -300.39)"/><path class="cls-2" d="M166.89,405.45v0s0,0,0,0h0l-.09,0h0l0,0-.07,0h0l-.13.05h0a10.87,10.87,0,0,0-5.58,6.14l-.09,0a11,11,0,0,1,5.86-6.31l.06,0h0l0,0h.06A0,0,0,0,1,166.89,405.45Z" transform="translate(-159.47 -300.39)"/><path class="cls-2" d="M166.83,405.43s0,0,0,0h0s0,0,0,0a.47.47,0,0,0-.1.1l-.07.07h0a13.78,13.78,0,0,0-3.37,5.84l-.11.06a13.84,13.84,0,0,1,3.31-5.87l.09-.09.06-.06,0-.05,0,0h0l.06,0h.07Z" transform="translate(-159.47 -300.39)"/><path class="cls-2" d="M166.85,405.51h0l0,.08,0,.08a10.13,10.13,0,0,0-1.07,3.86h0l-.11.11a10.89,10.89,0,0,1,1.09-4h0l0,0s0,0,0,0l.06-.1h.08A0,0,0,0,1,166.85,405.51Z" transform="translate(-159.47 -300.39)"/><path class="cls-2" d="M168.78,406.68l-.09.06a10.09,10.09,0,0,0-1.94-1.05l-.08,0h-.07a0,0,0,0,1,0,0s0,0,0,0a.07.07,0,0,1,.06,0h0l0,0h.1l0,0A9.77,9.77,0,0,1,168.78,406.68Z" transform="translate(-159.47 -300.39)"/><path class="cls-1" d="M162,399.07a1,1,0,0,0,.09.43.26.26,0,0,0,.27.15c.09,0,.13-.14.15-.24.08-.29.6-1.6.12-1.62S162,398.69,162,399.07Z" transform="translate(-159.47 -300.39)"/><path class="cls-1" d="M165.28,400.05a.64.64,0,0,0,.27.11.26.26,0,0,0,.25-.1.33.33,0,0,0,0-.22c0-.48-.8-1.52-1.37-1.09S165,399.87,165.28,400.05Z" transform="translate(-159.47 -300.39)"/><path class="cls-1" d="M160.42,402.92a.8.8,0,0,0,.11.37.38.38,0,0,0,.33.16c.18,0,.28-.23.35-.4a3.68,3.68,0,0,0,.24-1,.6.6,0,0,0-.21-.6C160.6,401,160.4,402.6,160.42,402.92Z" transform="translate(-159.47 -300.39)"/><path class="cls-1" d="M163.33,401.86a5.64,5.64,0,0,0,.72.66.49.49,0,0,0,.39.14.32.32,0,0,0,.23-.33.73.73,0,0,0-.15-.4,1.8,1.8,0,0,0-.86-.68.53.53,0,0,0-.35-.05C162.89,401.29,163.16,401.68,163.33,401.86Z" transform="translate(-159.47 -300.39)"/><path class="cls-1" d="M162.08,405.37a.44.44,0,0,0,.23.25.32.32,0,0,0,.32-.09.73.73,0,0,0,.19-.29,3.1,3.1,0,0,0,.2-.81c0-.36-.33-1.45-.79-.83A2.08,2.08,0,0,0,162.08,405.37Z" transform="translate(-159.47 -300.39)"/><path class="cls-1" d="M166.71,401.53a.53.53,0,0,0,.13.47.42.42,0,0,0,.49,0,1,1,0,0,0,.33-.41,3,3,0,0,0,.19-.67c.05-.34-.13-1-.59-.68A2.22,2.22,0,0,0,166.71,401.53Z" transform="translate(-159.47 -300.39)"/><path class="cls-1" d="M165.43,396.33a2.45,2.45,0,0,1,0,.27.88.88,0,0,1-.25.5.44.44,0,0,1-.52.07.62.62,0,0,1-.19-.63,2.9,2.9,0,0,1,.14-.7Z" transform="translate(-159.47 -300.39)"/><path class="cls-1" d="M168,398.38h0a1.29,1.29,0,0,1,0,.23c-.06.23-.2.47-.43.49a.48.48,0,0,1-.39-.18.94.94,0,0,1-.16-.75,2,2,0,0,1,.16-.45C167.46,397.94,167.74,398.17,168,398.38Z" transform="translate(-159.47 -300.39)"/><path class="cls-1" d="M169.35,400.87a.38.38,0,0,0,.14.38.82.82,0,0,0,.39.18,2.75,2.75,0,0,0,.81.06.29.29,0,0,0,.18-.05.23.23,0,0,0,.07-.23.45.45,0,0,0-.13-.22,2,2,0,0,0-.75-.54A.64.64,0,0,0,169.35,400.87Z" transform="translate(-159.47 -300.39)"/><path class="cls-1" d="M160.2,407.76a.41.41,0,0,0,.43-.1,1.5,1.5,0,0,0,.38-.7c.15-.46.24-1.43-.51-.93C160.13,406.28,159.7,407.5,160.2,407.76Z" transform="translate(-159.47 -300.39)"/><path class="cls-1" d="M160.17,409.31a1.51,1.51,0,0,1,0,.73,1,1,0,0,1-.19.41.38.38,0,0,1-.19.13,4.76,4.76,0,0,1-.06-.65c0-.35,0-.7-.05-1.05A.57.57,0,0,1,160.17,409.31Z" transform="translate(-159.47 -300.39)"/><path class="cls-2" d="M185.56,410.32a2.08,2.08,0,0,1-.19.29,2.37,2.37,0,0,1-1,.73l-.1,0h0l-.05,0-.12,0-.27.07-.27.05a11.62,11.62,0,0,1-2.43-.07l-.65,0h-.09a14.21,14.21,0,0,0-2.16.11c-.49.06-1,.15-1.46.22h0l-.13,0-.16,0-.5.06-.34,0-.35,0h-.42l-.26,0-.24,0-.32,0-.11,0h0l-.29-.07a2.66,2.66,0,0,1-1.3-.77,1.33,1.33,0,0,1-.14-.19l0-.08a.33.33,0,0,1-.06-.1l0-.06,0-.07a1.46,1.46,0,0,1-.07-.92,1.82,1.82,0,0,1,.11-.28,5.19,5.19,0,0,1,.31-.5l.53-.75,1.07-1.51c.17-.24.33-.48.5-.71a14.2,14.2,0,0,1,1.06-1.34,10.43,10.43,0,0,1,.93-1,10.6,10.6,0,0,1,1.24-1,9.8,9.8,0,0,1,1.83-1,8.12,8.12,0,0,1,1.51-.49,2.7,2.7,0,0,1,2,.14,1.22,1.22,0,0,1,.36.39l.07.11a4,4,0,0,1,.25.69.94.94,0,0,1,0,.16l.12.46.3,1.3c.08.31.15.62.23.92h0c.11.42.24.81.38,1.21l.18.44a8.71,8.71,0,0,1,.68,1.93A2.24,2.24,0,0,1,185.56,410.32Z" transform="translate(-159.47 -300.39)"/><path class="cls-5" d="M185.37,410.61a2.39,2.39,0,0,1-1,.73l-.1,0a3.16,3.16,0,0,1-.72.18,11.62,11.62,0,0,1-2.43-.07l-.64,0h-.1a15.64,15.64,0,0,0-2.16.12c-.49.06-1,.14-1.46.21h0l-.13,0a7.78,7.78,0,0,1-2.59.05l-.11,0h0l-.29-.07a2.74,2.74,0,0,1-1.3-.77l-.14-.19,0-.08a.9.9,0,0,1-.12-.24c.92-1.28,3.46-1.9,4.76-2.05l.26,0h0l.3,0a14.52,14.52,0,0,1,3.77.3l.17,0c.47.1.93.21,1.39.33a7.83,7.83,0,0,1,1.58.57,1,1,0,0,1,.17.1h0l.43.31A1.84,1.84,0,0,1,185.37,410.61Z" transform="translate(-159.47 -300.39)"/><path class="cls-2" d="M181.32,408.7a4.76,4.76,0,0,0-1.47.71h0a0,0,0,0,1,0,0s0,0,0,0a4.51,4.51,0,0,1,1.35-.68Z" transform="translate(-159.47 -300.39)"/><path class="cls-2" d="M184.46,409.7a25.89,25.89,0,0,0-4.13-.13h-.27l-.23,0h-.26s0,0,0,0h0a0,0,0,0,1,0,0h.48a25.75,25.75,0,0,1,4.21.1A1,1,0,0,1,184.46,409.7Z" transform="translate(-159.47 -300.39)"/><path class="cls-2" d="M184.39,411.34l-.1,0a17.72,17.72,0,0,0-4.23-1.8l-.24-.06h0l-.08,0h0s0,0,0,0a0,0,0,0,1,.05,0h0l.34.08h0l.25.07A17.42,17.42,0,0,1,184.39,411.34Z" transform="translate(-159.47 -300.39)"/><path class="cls-2" d="M177.07,408.4a6.78,6.78,0,0,1,2.61,1.07h.13a0,0,0,0,0,0-.05l0,0a6.93,6.93,0,0,0-2.36-1Z" transform="translate(-159.47 -300.39)"/><path class="cls-2" d="M179.85,409.58l0,0h-.08l-.08,0h-.12l-.12,0h0a9.55,9.55,0,0,0-7.22,1.27l0-.08a9.73,9.73,0,0,1,7.51-1.23h.14A.05.05,0,0,1,179.85,409.58Z" transform="translate(-159.47 -300.39)"/><path class="cls-2" d="M179.82,409.53s0,0,0,0h0l-.13,0h-.09a12.18,12.18,0,0,0-5.52,2.25l-.11,0a12.34,12.34,0,0,1,5.49-2.31h.35s0,0,0,0l0,0h0S179.82,409.53,179.82,409.53Z" transform="translate(-159.47 -300.39)"/><path class="cls-2" d="M179.79,409.59h0l-.07,0a.11.11,0,0,0-.08,0,9.12,9.12,0,0,0-2.84,2.11h0l-.13,0a9.37,9.37,0,0,1,2.93-2.2h0l0,0h0l.1,0h0a0,0,0,0,1,0,0h0S179.8,409.59,179.79,409.59Z" transform="translate(-159.47 -300.39)"/><path class="cls-2" d="M180.5,411.46h-.1a8.82,8.82,0,0,0-.78-1.78l0-.06v-.06h0a.08.08,0,0,1,0,0l0,0s.05,0,.06,0h0v0l0,0v0l0,0,0,0A9,9,0,0,1,180.5,411.46Z" transform="translate(-159.47 -300.39)"/><path class="cls-1" d="M179.89,402.45a.88.88,0,0,0-.17.35.22.22,0,0,0,.11.24.26.26,0,0,0,.24-.08c.2-.15,1.28-.79,1-1.07S180.1,402.17,179.89,402.45Z" transform="translate(-159.47 -300.39)"/><path class="cls-1" d="M181.66,404.93a.61.61,0,0,0,.13.22.25.25,0,0,0,.23.07.37.37,0,0,0,.15-.13c.23-.36.27-1.5-.36-1.5S181.55,404.64,181.66,404.93Z" transform="translate(-159.47 -300.39)"/><path class="cls-1" d="M176.72,404.3a.73.73,0,0,0-.12.32.3.3,0,0,0,.14.28.49.49,0,0,0,.46-.08,3.5,3.5,0,0,0,.73-.59.57.57,0,0,0,.18-.54C177.88,403.07,176.89,404.06,176.72,404.3Z" transform="translate(-159.47 -300.39)"/><path class="cls-1" d="M179.32,405.13a5,5,0,0,0,.15.86.44.44,0,0,0,.19.31.3.3,0,0,0,.34-.11.57.57,0,0,0,.11-.36,1.7,1.7,0,0,0-.22-.94.49.49,0,0,0-.22-.23C179.33,404.5,179.3,404.92,179.32,405.13Z" transform="translate(-159.47 -300.39)"/><path class="cls-1" d="M176.54,406.91a.39.39,0,0,0,0,.3.31.31,0,0,0,.27.12.79.79,0,0,0,.29-.11,2.31,2.31,0,0,0,.58-.46c.22-.23.56-1.19-.1-1A1.89,1.89,0,0,0,176.54,406.91Z" transform="translate(-159.47 -300.39)"/><path class="cls-1" d="M181.86,406.74a.45.45,0,0,0-.17.4.39.39,0,0,0,.33.28.81.81,0,0,0,.45-.11A2.47,2.47,0,0,0,183,407c.23-.22.48-.8,0-.8A1.88,1.88,0,0,0,181.86,406.74Z" transform="translate(-159.47 -300.39)"/><path class="cls-1" d="M183.79,402.41l-.17.18a.76.76,0,0,1-.44.21.4.4,0,0,1-.4-.23A.58.58,0,0,1,183,402a2.37,2.37,0,0,1,.48-.41Z" transform="translate(-159.47 -300.39)"/><path class="cls-1" d="M184.48,405.25h0a.92.92,0,0,1-.14.14.52.52,0,0,1-.57.11.39.39,0,0,1-.17-.33.77.77,0,0,1,.3-.61,1.41,1.41,0,0,1,.35-.23C184.33,404.64,184.4,405,184.48,405.25Z" transform="translate(-159.47 -300.39)"/><path class="cls-1" d="M184.05,407.71a.34.34,0,0,0-.11.34.73.73,0,0,0,.17.34,2.43,2.43,0,0,0,.53.48.31.31,0,0,0,.16.06.21.21,0,0,0,.17-.13.51.51,0,0,0,0-.22,1.65,1.65,0,0,0-.23-.78A.56.56,0,0,0,184.05,407.71Z" transform="translate(-159.47 -300.39)"/><path class="cls-1" d="M173.94,407.56a.36.36,0,0,0,.35.17,1.36,1.36,0,0,0,.65-.29c.35-.24.94-.86.14-.92C174.69,406.49,173.73,407.11,173.94,407.56Z" transform="translate(-159.47 -300.39)"/><path class="cls-1" d="M173.08,408.63a1.26,1.26,0,0,1-.44.48.88.88,0,0,1-.34.19.5.5,0,0,1-.21,0,5.19,5.19,0,0,1,.31-.5l.53-.75A.48.48,0,0,1,173.08,408.63Z" transform="translate(-159.47 -300.39)"/><path class="cls-2" d="M186.34,419.74a2,2,0,0,0,0,.34,2.44,2.44,0,0,0,.34,1.17.53.53,0,0,0,.06.1h0l0,0,.07.11.17.22.18.2a11.46,11.46,0,0,0,2,1.42c.18.12.36.24.53.37l.08,0a14.69,14.69,0,0,1,1.64,1.41c.35.35.69.71,1,1.06h0l.09.1.11.11.36.36.26.23.26.23a3.59,3.59,0,0,0,.33.25,1.43,1.43,0,0,0,.22.15l.2.13.28.15.11.06h0l.27.12a2.75,2.75,0,0,0,1.5.18l.23-.07.08,0,.11,0,0,0,.08-.05a1.42,1.42,0,0,0,.61-.69,2.45,2.45,0,0,0,.08-.29,3.55,3.55,0,0,0,.06-.57l0-.93c0-.61,0-1.23.08-1.85l0-.86a13.89,13.89,0,0,0,0-1.71,11.88,11.88,0,0,0-.16-1.32,10.4,10.4,0,0,0-.39-1.53,10,10,0,0,0-.85-1.89,9.73,9.73,0,0,0-.9-1.32,2.73,2.73,0,0,0-1.7-1.12,1.37,1.37,0,0,0-.53.08l-.12.05a5,5,0,0,0-.62.39l-.13.11c-.13.09-.25.19-.37.29l-1,.85-.74.59h0c-.34.26-.68.5-1,.72l-.42.25a9.71,9.71,0,0,0-1.72,1.11A2.39,2.39,0,0,0,186.34,419.74Z" transform="translate(-159.47 -300.39)"/><path class="cls-5" d="M186.31,420.08a2.44,2.44,0,0,0,.34,1.17l.06.1a3.21,3.21,0,0,0,.45.58,11.46,11.46,0,0,0,2,1.42c.18.12.36.24.53.37l.08,0a14.69,14.69,0,0,1,1.64,1.41c.35.34.69.71,1,1.06h0l.09.1a7.92,7.92,0,0,0,2,1.61l.11.05h0l.27.12a2.58,2.58,0,0,0,1.5.18,1,1,0,0,0,.23-.06l.08,0a1.34,1.34,0,0,0,.24-.12c0-1.57-1.59-3.61-2.53-4.53l-.19-.18h0l-.21-.2a15,15,0,0,0-3.18-2.07l-.15-.07c-.43-.21-.87-.4-1.31-.58a6.86,6.86,0,0,0-1.59-.51l-.21,0h0a3.09,3.09,0,0,0-.53,0A1.77,1.77,0,0,0,186.31,420.08Z" transform="translate(-159.47 -300.39)"/><path class="cls-2" d="M190.69,421a4.65,4.65,0,0,1,.73,1.46l0,0h0a0,0,0,0,0,0,0,4.45,4.45,0,0,0-.66-1.37Z" transform="translate(-159.47 -300.39)"/><path class="cls-2" d="M187.58,419.91a25.81,25.81,0,0,1,3.37,2.41l.2.17.17.16.05,0h0l.06.06.05,0,0,0h0l0,0a0,0,0,0,0,0,0,0,0,0,0,0,0,0l0,0-.08-.07h0s0,0,0,0h0l-.2-.18a25.77,25.77,0,0,0-3.39-2.47Z" transform="translate(-159.47 -300.39)"/><path class="cls-2" d="M186.65,421.25l.06.1a17.58,17.58,0,0,1,4.44,1.14l.23.1h0l.08,0h0l0,0a0,0,0,0,0,0-.06h0l-.32-.14h0l-.23-.09A17.82,17.82,0,0,0,186.65,421.25Z" transform="translate(-159.47 -300.39)"/><path class="cls-2" d="M194.24,423.38a6.89,6.89,0,0,0-2.71-.74h-.11v0h0s0,0,0,0h0v0l0,0h.06a7,7,0,0,1,2.51.62Z" transform="translate(-159.47 -300.39)"/><path class="cls-2" d="M191.32,422.62v0a0,0,0,0,0,0,0h0l.08,0h0l.06,0h0l.12.05h0a9.62,9.62,0,0,1,4.95,5.4l.08,0a9.71,9.71,0,0,0-5.21-5.55l0,0h-.09S191.33,422.6,191.32,422.62Z" transform="translate(-159.47 -300.39)"/><path class="cls-2" d="M191.37,422.6v0h0v0l.09.09.06.06h0a12.1,12.1,0,0,1,3,5.14l.11.05a12.39,12.39,0,0,0-2.95-5.17l-.08-.08-.06-.05,0,0a0,0,0,0,0,0,0h0s0,0-.05-.05h0l0,0h0A0,0,0,0,0,191.37,422.6Z" transform="translate(-159.47 -300.39)"/><path class="cls-2" d="M191.36,422.67v0h0a.43.43,0,0,0,0,.07s0,.05,0,.08a9,9,0,0,1,1,3.4h0l.09.1a9.32,9.32,0,0,0-1-3.53h0l0-.05v0l-.05-.09h-.07s0,0,0,0A0,0,0,0,0,191.36,422.67Z" transform="translate(-159.47 -300.39)"/><path class="cls-2" d="M189.66,423.72l.08,0a8.58,8.58,0,0,1,1.71-.93.11.11,0,0,1,.07,0h.06l0,0s0,0,0,0,0,0,0,0h0l0,0h-.08A8.52,8.52,0,0,0,189.66,423.72Z" transform="translate(-159.47 -300.39)"/><path class="cls-1" d="M195.63,416.94a.81.81,0,0,1-.08.38c-.05.09-.14.16-.23.13s-.12-.12-.14-.21c-.07-.25-.54-1.41-.11-1.43S195.64,416.6,195.63,416.94Z" transform="translate(-159.47 -300.39)"/><path class="cls-1" d="M192.72,417.83a.72.72,0,0,1-.24.1.25.25,0,0,1-.23-.09.42.42,0,0,1,0-.19c0-.43.7-1.35,1.2-1S193,417.67,192.72,417.83Z" transform="translate(-159.47 -300.39)"/><path class="cls-1" d="M197,420.34a.7.7,0,0,1-.09.32.32.32,0,0,1-.29.15c-.16,0-.25-.2-.31-.35a3.19,3.19,0,0,1-.22-.91.56.56,0,0,1,.18-.54C196.84,418.66,197,420.05,197,420.34Z" transform="translate(-159.47 -300.39)"/><path class="cls-1" d="M194.45,419.42a6,6,0,0,1-.64.59.5.5,0,0,1-.34.13.3.3,0,0,1-.21-.3.57.57,0,0,1,.14-.35,1.6,1.6,0,0,1,.75-.61.57.57,0,0,1,.31-.05C194.83,418.91,194.59,419.26,194.45,419.42Z" transform="translate(-159.47 -300.39)"/><path class="cls-1" d="M195.56,422.52a.34.34,0,0,1-.2.22.29.29,0,0,1-.28-.07.73.73,0,0,1-.17-.26,2.92,2.92,0,0,1-.18-.72c0-.32.28-1.28.7-.74A1.84,1.84,0,0,1,195.56,422.52Z" transform="translate(-159.47 -300.39)"/><path class="cls-1" d="M191.46,419.14a.51.51,0,0,1-.11.43.39.39,0,0,1-.43,0,.73.73,0,0,1-.29-.36,2.51,2.51,0,0,1-.18-.59c0-.31.11-.92.52-.62A2,2,0,0,1,191.46,419.14Z" transform="translate(-159.47 -300.39)"/><path class="cls-1" d="M193.3,414.09a2.37,2.37,0,0,1,.13.62.57.57,0,0,1-.16.57.39.39,0,0,1-.46-.06.74.74,0,0,1-.22-.44,1,1,0,0,1,0-.25Z" transform="translate(-159.47 -300.39)"/><path class="cls-1" d="M190.28,416.37h0c0,.08,0,.15,0,.2s.18.41.38.43a.4.4,0,0,0,.34-.16.83.83,0,0,0,.14-.67,1.29,1.29,0,0,0-.15-.39Z" transform="translate(-159.47 -300.39)"/><path class="cls-1" d="M189.13,418.58a.37.37,0,0,1-.12.34.75.75,0,0,1-.35.16,2.12,2.12,0,0,1-.71.06.25.25,0,0,1-.16-.05.21.21,0,0,1-.06-.2.45.45,0,0,1,.11-.19,1.87,1.87,0,0,1,.66-.49A.57.57,0,0,1,189.13,418.58Z" transform="translate(-159.47 -300.39)"/><path class="cls-1" d="M197.23,424.62a.34.34,0,0,1-.37-.08,1.31,1.31,0,0,1-.34-.62c-.14-.41-.22-1.26.44-.82C197.29,423.31,197.68,424.39,197.23,424.62Z" transform="translate(-159.47 -300.39)"/><path class="cls-1" d="M197.27,426a1.2,1.2,0,0,0,0,.65,1.07,1.07,0,0,0,.16.36.39.39,0,0,0,.17.11,3.55,3.55,0,0,0,.06-.57l0-.93A.5.5,0,0,0,197.27,426Z" transform="translate(-159.47 -300.39)"/><path class="cls-10" d="M166.66,405.56s9,23.57,15.05,30.78" transform="translate(-159.47 -300.39)"/><path class="cls-10" d="M187.24,447.32c-10.71-13.56-7.58-37.44-7.58-37.44" transform="translate(-159.47 -300.39)"/><path class="cls-10" d="M191.76,423s-9,11-5.42,23.12" transform="translate(-159.47 -300.39)"/><path class="cls-11" d="M167,348.27s14-23.93,29-38.25" transform="translate(-159.47 -300.39)"/><path class="cls-7" d="M195.05,310.94s10.73-.67,10-2.72S195.05,310.94,195.05,310.94Z" transform="translate(-159.47 -300.39)"/><path class="cls-7" d="M194.78,311s9.79-4.74,8.46-6.39S194.78,311,194.78,311Z" transform="translate(-159.47 -300.39)"/><path class="cls-7" d="M195,311.35s6.3-9.3,4.38-10S195,311.35,195,311.35Z" transform="translate(-159.47 -300.39)"/><polygon class="cls-2" points="34.65 11.49 37.38 10.41 35.95 8.57 34.65 11.49"/><path class="cls-11" d="M165.73,345.77s23-21.53,41.19-30.65" transform="translate(-159.47 -300.39)"/><path class="cls-7" d="M205.76,315.71s10.47,2.63,10.36.46S205.76,315.71,205.76,315.71Z" transform="translate(-159.47 -300.39)"/><path class="cls-7" d="M205.47,315.72s10.66-1.56,9.83-3.54S205.47,315.72,205.47,315.72Z" transform="translate(-159.47 -300.39)"/><path class="cls-7" d="M205.55,316.07s8.54-7,6.89-8.27S205.55,316.07,205.55,316.07Z" transform="translate(-159.47 -300.39)"/><polygon class="cls-2" points="45.15 15.93 48.06 15.73 47.17 13.53 45.15 15.93"/><path class="cls-12" d="M169.85,349.27s8.43-32.2,17.32-40.26" transform="translate(-159.47 -300.39)"/><path class="cls-2" d="M186.28,309.87s3.27-9.13,5.91-7.23S186.28,309.87,186.28,309.87Z" transform="translate(-159.47 -300.39)"/><path class="cls-2" d="M180.78,318.55s-1-8.18,1.47-8.95S180.78,318.55,180.78,318.55Z" transform="translate(-159.47 -300.39)"/><path class="cls-2" d="M180.85,318.43s5.48-6.95,7.67-5.17-7.84,5.53-7.84,5.53" transform="translate(-159.47 -300.39)"/><path class="cls-2" d="M178.11,324.52s-2.87-5.3-1.19-6.07S178.11,324.52,178.11,324.52Z" transform="translate(-159.47 -300.39)"/><path class="cls-2" d="M177.59,325.48s4.69-6.89,6.76-5.12S177.59,325.48,177.59,325.48Z" transform="translate(-159.47 -300.39)"/><path class="cls-12" d="M198,327a15.76,15.76,0,0,1,3.14-.33" transform="translate(-159.47 -300.39)"/><path class="cls-12" d="M163.35,345s22-15.53,34.66-18" transform="translate(-159.47 -300.39)"/><path class="cls-2" d="M200,326.69s8.07-4.61,8.9-1.33S200,326.69,200,326.69Z" transform="translate(-159.47 -300.39)"/><path class="cls-2" d="M190.19,329.48s4.26-6.88,6.61-5.74S190.19,329.48,190.19,329.48Z" transform="translate(-159.47 -300.39)"/><path class="cls-2" d="M190.66,329.25s8.4-1.42,9,1.45-9.32-1.3-9.32-1.3" transform="translate(-159.47 -300.39)"/><path class="cls-2" d="M184.78,332.05s1.09-6,2.83-5.41S184.78,332.05,184.78,332.05Z" transform="translate(-159.47 -300.39)"/><path class="cls-2" d="M183.8,332.42s7.78-1.94,8.25.85S183.8,332.42,183.8,332.42Z" transform="translate(-159.47 -300.39)"/><path class="cls-13" d="M173.25,339.41s-.31-.73-.84-.81" transform="translate(-159.47 -300.39)"/><path class="cls-13" d="M173.09,339.61s-.32-.73-.85-.81" transform="translate(-159.47 -300.39)"/><path class="cls-13" d="M173.42,339.21s-.32-.73-.84-.81" transform="translate(-159.47 -300.39)"/><path class="cls-13" d="M173.64,339s-.31-.73-.84-.81" transform="translate(-159.47 -300.39)"/></svg>