<svg id="Capa_1" data-name="Capa 1" xmlns="http://www.w3.org/2000/svg" viewBox="0 0 70.82 75.61"><defs><style>.cls-1{fill:#191c30;}.cls-2{fill:#fff;}.cls-3{fill:#c7a58c;}.cls-4{fill:#f0c3c0;}.cls-5,.cls-6{fill:none;stroke:#c7a58c;stroke-width:0.53px;}.cls-5{stroke-linecap:round;stroke-linejoin:round;}.cls-6{stroke-miterlimit:10;}.cls-7{fill:#9da4cb;}.cls-8{fill:#7c8bb5;}</style></defs><path class="cls-1" d="M334.19,421.25,302,442.78s-5.15,3.45-11,2c-1.89-.47-5.33-5.75-9.11-12.7a3.24,3.24,0,0,1-.17-.32c-1-1.84-2-3.78-3-5.79h0c-.08-.15-.16-.3-.23-.45-2.17-4.27-4.33-8.77-6.29-12.94l-.14-.29-2.35-5.07-.16-.35c-.62-1.34-1.19-2.61-1.72-3.78A9.58,9.58,0,0,1,271.46,391l35.15-21.45,1,1.7Z" transform="translate(-266.86 -369.52)"/><path class="cls-1" d="M270.32,395a5.49,5.49,0,0,0,7.39,2.91c5.44-2,38.73-24.42,38.73-24.42L337.68,419l-3.91,2.52-33.63,22.09Z" transform="translate(-266.86 -369.52)"/><path class="cls-2" d="M314.9,374.42s-2.49,2-6.27,4.86c-.5.38-1,.78-1.57,1.18h0c-6,4.45-14.38,10.35-21.53,14.1l-1,.54a45.91,45.91,0,0,1-4.34,1.94l-.52.18a19.15,19.15,0,0,1-2.77.79l-.31.06-.13,0a8.33,8.33,0,0,1-1.88.12l-.2,0a3.06,3.06,0,0,1-2.49-1.44,4,4,0,0,1-.48-1.1l0-.13a1.9,1.9,0,0,1,0-.75,1.38,1.38,0,0,1,.67-.93l35.9-22.47.88.38.12.06,1,.42h0l.12.05h0l.92.4.12.06h0l.91.39.12.06h0l1,.41.14.06.71.31.13.06.6.26.14.06Z" transform="translate(-266.86 -369.52)"/><path class="cls-3" d="M308.89,371.82l0,0-37.51,23.82,0-.12,37.43-23.78,0,0a.07.07,0,0,1,.09,0A.06.06,0,0,1,308.89,371.82Z" transform="translate(-266.86 -369.52)"/><path class="cls-3" d="M272,396.42a.05.05,0,0,1-.05,0,.05.05,0,0,1,0-.08l37.93-24.09a.07.07,0,0,1,.09,0,.07.07,0,0,1,0,.09L272,396.41Z" transform="translate(-266.86 -369.52)"/><path class="cls-3" d="M272.69,397.11a.05.05,0,0,1-.05,0,.07.07,0,0,1,0-.09L311,372.67a.07.07,0,0,1,.07.11l-38.3,24.32Z" transform="translate(-266.86 -369.52)"/><path class="cls-3" d="M273.37,397.79a.05.05,0,0,1-.05,0,.07.07,0,0,1,0-.09L312,373.12a.08.08,0,0,1,.09,0,.07.07,0,0,1,0,.09L273.4,397.78Z" transform="translate(-266.86 -369.52)"/><path class="cls-3" d="M313.18,373.67l-38.65,24.55-.2,0L313,373.61Z" transform="translate(-266.86 -369.52)"/><path class="cls-3" d="M314,374l-37.17,24-.31.06L313.89,374Z" transform="translate(-266.86 -369.52)"/><path class="cls-3" d="M314.76,374.36l-34.62,22.69-.52.19,35-22.94Z" transform="translate(-266.86 -369.52)"/><path class="cls-3" d="M308.63,379.28l-1.57,1.18h0l-21.52,14.1-1,.54Z" transform="translate(-266.86 -369.52)"/><path class="cls-4" d="M276.45,398.13c-2.16.35-3.77,0-4.57-1.34a3,3,0,0,1-.52-2c.32-.1,2.69-.8,4.11.86A4.15,4.15,0,0,1,276.45,398.13Z" transform="translate(-266.86 -369.52)"/><line class="cls-5" x1="9.67" y1="32.39" x2="32.42" y2="72.7"/><path class="cls-3" d="M279.66,407.43a7.33,7.33,0,0,1-4.32,1.32,13.26,13.26,0,0,1-5.75-1.54l-.16-.35c2.69,1.39,6.76,2.7,10.09.37a.12.12,0,0,1,.14.2Z" transform="translate(-266.86 -369.52)"/><path class="cls-3" d="M282,411.55a9.61,9.61,0,0,1-5.62,1.65,16.37,16.37,0,0,1-4.29-.63l-.14-.29c2.83.81,6.78,1.27,9.91-.93a.13.13,0,0,1,.17,0A.11.11,0,0,1,282,411.55Z" transform="translate(-266.86 -369.52)"/><path class="cls-3" d="M290.67,427.32a7.38,7.38,0,0,1-4.32,1.33A15.3,15.3,0,0,1,278.6,426h0c-.08-.15-.16-.3-.23-.45,2.14,1.46,7.79,4.67,12.16,1.61a.12.12,0,0,1,.14.2Z" transform="translate(-266.86 -369.52)"/><path class="cls-3" d="M293,431.45a9.62,9.62,0,0,1-5.62,1.64,17.4,17.4,0,0,1-5.57-1,3.24,3.24,0,0,1-.17-.32c2.8,1,7.56,2.06,11.21-.51a.13.13,0,1,1,.15.21Z" transform="translate(-266.86 -369.52)"/><polygon class="cls-6" points="15.49 32.1 35.4 69.47 67.33 48.97 49.23 10.28 15.49 32.1"/><path class="cls-3" d="M316.35,383.6a1,1,0,1,1-1-1A1,1,0,0,1,316.35,383.6Z" transform="translate(-266.86 -369.52)"/><path class="cls-3" d="M331.83,417.56a1,1,0,1,1-1-1A1,1,0,0,1,331.83,417.56Z" transform="translate(-266.86 -369.52)"/><path class="cls-3" d="M304,435.87a1,1,0,1,1-1-1A1,1,0,0,1,304,435.87Z" transform="translate(-266.86 -369.52)"/><path class="cls-3" d="M286.49,402.21a1,1,0,1,1-1.94,0,1,1,0,1,1,1.94,0Z" transform="translate(-266.86 -369.52)"/><path class="cls-3" d="M299.79,414.83c-2.54-4.22-.65-10,4.23-13s10.89-1.9,13.43,2.33a7.83,7.83,0,0,1,.93,2.27c-3-2.58-7.81-2.88-11.86-.44s-6,6.84-5.15,10.68A7.78,7.78,0,0,1,299.79,414.83Z" transform="translate(-266.86 -369.52)"/><path class="cls-2" d="M317.82,410.46a9.06,9.06,0,0,1-4.14,6.53l-.43.27-.32.17a8.11,8.11,0,0,1-8.05-.21h0a7.73,7.73,0,0,1,3.94-7.67h0l.32-.16,0,0,.33-.15a7.68,7.68,0,0,1,8.3,1.26Z" transform="translate(-266.86 -369.52)"/><path class="cls-3" d="M314.78,410.92a4.12,4.12,0,0,1,.27.45,4.49,4.49,0,0,1-1.37,5.62,4.55,4.55,0,0,1-.64.39l-.11.05a4.47,4.47,0,0,1-5.92-2,2.87,2.87,0,0,1-.18-.4,4.48,4.48,0,0,1,2-5.5h0l.18-.1.14-.06,0,0A4.49,4.49,0,0,1,314.78,410.92Z" transform="translate(-266.86 -369.52)"/><line class="cls-5" x1="41.7" y1="51.68" x2="41.43" y2="55.98"/><line class="cls-5" x1="45.03" y1="50.92" x2="45.79" y2="54.75"/><line class="cls-5" x1="47.85" y1="49.75" x2="49.62" y2="52.84"/><line class="cls-5" x1="50.28" y1="47.98" x2="52.65" y2="50.52"/><line class="cls-5" x1="51.99" y1="45.8" x2="55.88" y2="47.16"/><line class="cls-5" x1="42.22" y1="27.95" x2="42.43" y2="24.45"/><line class="cls-5" x1="38.89" y1="28.71" x2="38.13" y2="24.88"/><line class="cls-5" x1="36.07" y1="29.88" x2="34.3" y2="26.8"/><line class="cls-5" x1="33.64" y1="31.65" x2="31.26" y2="29.12"/><line class="cls-5" x1="31.93" y1="33.84" x2="28.82" y2="32.75"/><path class="cls-7" d="M280.14,397.05l2.83-1.21L289,406l.89-3.73,3.89.54s-4.31-7.86-5.84-9.54a3.56,3.56,0,0,0-3.43-1.15c-4,1.73-4.34,4.93-4.34,4.93" transform="translate(-266.86 -369.52)"/><path class="cls-8" d="M280.14,397.05s.42-1.47,1.43-1.66a1.3,1.3,0,0,1,1.4.45s-.76.39-1.32.61Z" transform="translate(-266.86 -369.52)"/></svg>