<svg id="Capa_1" data-name="Capa 1" xmlns="http://www.w3.org/2000/svg" viewBox="0 0 80.61 121.5"><defs><style>.cls-1{fill:#f0c3c0;}.cls-2{fill:#f5e0b3;}.cls-3{fill:#9da4cb;}.cls-4,.cls-8,.cls-9{fill:none;}.cls-4{stroke:#9da4cb;}.cls-4,.cls-8{stroke-linecap:round;stroke-linejoin:round;}.cls-5{fill:#fff;}.cls-6{fill:#c7a58c;}.cls-7{fill:#191c30;}.cls-8,.cls-9{stroke:#191c30;}.cls-9{stroke-miterlimit:10;}</style></defs><path class="cls-1" d="M225.52,392.58s-6-24.93-6.45-36.11-.43-15.47.86-24.07.43-24.93,5.59-24.93,6,13.32,6,28.37c0,0,3.44-10.32,4.3-15.91S238,300.16,238,296.72s-1.45-19,3.09-19.9c4.17-.84,5.5,15.17,5.93,21.62.38,5.6-1.34,19.59-1.76,23.18,0,.07.28.17.3.1,1.07-4.25,5.86-23.67,6.62-30.16.86-7.31,2.73-14.74,5.74-14.74s3.72,6.14,3.29,11.3c0,0,1.72-4.73,4.3-4.3s2.69,23.81,1.55,29.63c-1.27,6.51-4.05,17.4-4.56,19.44,0,.06.15.19.19.14,1-1.51,5.87-8.65,6.26-10.95.43-2.58-.86-12.47,2.58-13.76s6.45,14.62,6,17.2-6.88,16.34-7.74,19.78-11.61,30.09-12,36.54c-.28,4.23-.38,8.83-.41,11.49a3.08,3.08,0,0,1-2.27,2.94C249.17,397.89,233.15,401.25,225.52,392.58Z" transform="translate(-203.69 -276.79)"/><path class="cls-2" d="M236.49,335.68s13.37.68,22.19,7.7L238,369.48S236.47,341.56,236.49,335.68Z" transform="translate(-203.69 -276.79)"/><path class="cls-3" d="M242.1,320.72a10.23,10.23,0,0,1,3,.4,8.16,8.16,0,0,1,1.43.52,5.2,5.2,0,0,1,1.26.88.19.19,0,0,1,0,.28.21.21,0,0,1-.2.05l-1.38-.41c-.46-.14-.91-.26-1.37-.42-.91-.27-1.85-.51-2.77-.81h0a.26.26,0,0,1-.16-.32A.25.25,0,0,1,242.1,320.72Z" transform="translate(-203.69 -276.79)"/><path class="cls-3" d="M260.88,332.2a.28.28,0,0,1,0-.18.28.28,0,0,1,.17-.22c.13,0,.13,0,.14,0a.56.56,0,0,1,.13,0l.1,0,.16.08.29.15.54.35a12.24,12.24,0,0,1,1,.78,7.38,7.38,0,0,1,1.63,2,.2.2,0,0,1-.09.28.2.2,0,0,1-.21,0h0c-.66-.49-1.28-1-1.92-1.53l-.92-.81-.46-.42-.21-.2-.11-.1,0,0h.06l.12,0a.27.27,0,0,0,.16-.21.2.2,0,0,0,0-.15.28.28,0,0,1-.11.37A.27.27,0,0,1,260.88,332.2Z" transform="translate(-203.69 -276.79)"/><path class="cls-4" d="M239,379.91s-2.69-14.35,1.52-19.56" transform="translate(-203.69 -276.79)"/><path class="cls-4" d="M268.63,342.94a5.44,5.44,0,0,0,3.55-1.69" transform="translate(-203.69 -276.79)"/><path class="cls-4" d="M268.63,344.23a5.41,5.41,0,0,0,2.94-2.59" transform="translate(-203.69 -276.79)"/><path class="cls-3" d="M231.88,334.6a16.66,16.66,0,0,0,.21,3.39,5.83,5.83,0,0,0,1.2,2.93h0a.5.5,0,0,1,0,.71.51.51,0,0,1-.71,0l0,0a4.61,4.61,0,0,1-.85-1.72,8.54,8.54,0,0,1-.32-1.78,17.33,17.33,0,0,1,.06-3.53.22.22,0,0,1,.24-.2.22.22,0,0,1,.2.23Z" transform="translate(-203.69 -276.79)"/><path class="cls-3" d="M221.48,345a13.27,13.27,0,0,1,2.31-1.71,11.11,11.11,0,0,1,1.29-.65,5.59,5.59,0,0,1,1.41-.41s.08,0,.09.07a.11.11,0,0,1,0,.08l-1.15.85q-.57.4-1.17.78a20.65,20.65,0,0,1-2.48,1.38.24.24,0,0,1-.32-.12A.23.23,0,0,1,221.48,345Z" transform="translate(-203.69 -276.79)"/><path class="cls-3" d="M223.78,342.26a3.52,3.52,0,0,1,1.15-.82,2.24,2.24,0,0,1,1.41-.28.21.21,0,0,1,.17.24.23.23,0,0,1-.06.12h0a3.47,3.47,0,0,1-1.16.69,6.07,6.07,0,0,1-1.29.41h0a.23.23,0,0,1-.26-.19A.2.2,0,0,1,223.78,342.26Z" transform="translate(-203.69 -276.79)"/><path class="cls-5" d="M256.64,353.75a15.61,15.61,0,0,1-13.11,2.44c-.28-.06-.57-.14-.86-.23l-.59-.19a14,14,0,0,1-9.21-10.43h0c.17-.21,5.75-6.95,14.33-4.05h0l.59.21.06,0c.2.07.39.15.59.24a13.22,13.22,0,0,1,8.16,12Z" transform="translate(-203.69 -276.79)"/><path class="cls-6" d="M252.48,350.45a6.54,6.54,0,0,1-.26.86,7.7,7.7,0,0,1-8.69,4.88,6.9,6.9,0,0,1-1.26-.34l-.19-.08a7.73,7.73,0,0,1-4.46-9.83c.09-.24.19-.47.3-.7a7.76,7.76,0,0,1,9.29-4h0l.35.12.24.09.06,0A7.74,7.74,0,0,1,252.48,350.45Z" transform="translate(-203.69 -276.79)"/><path class="cls-7" d="M248.56,350a3.88,3.88,0,1,1-2.32-4.94A3.86,3.86,0,0,1,248.56,350Z" transform="translate(-203.69 -276.79)"/><path class="cls-7" d="M256.63,353.74a35.11,35.11,0,0,0-4.15-3.29,34.29,34.29,0,0,0-3.7-2.16,31.16,31.16,0,0,0-6.61-2.38,28.38,28.38,0,0,0-4.25-.67,21.35,21.35,0,0,0-5,.09c.17-.21,5.75-6.95,14.33-4.05h0l.35.12.24.09.06,0c.2.07.39.15.59.24A13.22,13.22,0,0,1,256.63,353.74Z" transform="translate(-203.69 -276.79)"/><line class="cls-8" x1="28.37" y1="61.61" x2="30.62" y2="65.23"/><line class="cls-8" x1="37.16" y1="58.06" x2="37.51" y2="62.79"/><line class="cls-8" x1="46.32" y1="59.36" x2="44.79" y2="63.79"/><line class="cls-8" x1="50.3" y1="67.26" x2="54.79" y2="64.68"/><line class="cls-8" x1="53.44" y1="73.49" x2="58.22" y2="72.57"/><line class="cls-8" x1="24.55" y1="72.48" x2="28.62" y2="71.21"/><line class="cls-8" x1="28.88" y1="80.91" x2="32.24" y2="77.56"/><line class="cls-8" x1="36.67" y1="85.9" x2="38.4" y2="81.55"/><line class="cls-8" x1="44.84" y1="82.52" x2="46.56" y2="87.41"/><line class="cls-8" x1="51.29" y1="79.85" x2="54.31" y2="83.67"/><path class="cls-2" d="M247.21,345.2a.78.78,0,0,1-.79.77.77.77,0,0,1-.76-.79.78.78,0,1,1,1.55,0Z" transform="translate(-203.69 -276.79)"/><path class="cls-2" d="M253.16,348.13a.78.78,0,1,1-.77-.79A.78.78,0,0,1,253.16,348.13Z" transform="translate(-203.69 -276.79)"/><path class="cls-2" d="M240.5,343.82a.78.78,0,0,1-1.55,0,.78.78,0,1,1,1.55,0Z" transform="translate(-203.69 -276.79)"/><path class="cls-3" d="M252.51,325q1.49-4.62,2.88-9.26c.91-3.1,1.82-6.21,2.54-9.35s1.12-6.36,1.6-9.55l.73-4.81a38.58,38.58,0,0,1,.94-4.79.24.24,0,0,1,.28-.16.22.22,0,0,1,.15.28v0a40.32,40.32,0,0,0-.89,4.73l-.68,4.8c-.46,3.21-.89,6.42-1.54,9.61s-1.5,6.31-2.36,9.44-1.76,6.23-2.69,9.34a.51.51,0,0,1-.63.33.5.5,0,0,1-.33-.62Z" transform="translate(-203.69 -276.79)"/><path class="cls-7" d="M241.22,288.59a.13.13,0,0,1-.1-.06l-2.48-4.43a.11.11,0,0,1,0-.11.11.11,0,0,1,.09-.05h5a.11.11,0,0,1,.09.05.11.11,0,0,1,0,.11l-2.48,4.43A.13.13,0,0,1,241.22,288.59Zm-2.3-4.44,2.3,4.11,2.3-4.11Z" transform="translate(-203.69 -276.79)"/><path class="cls-7" d="M265.7,296.07l-4.71-.62a.13.13,0,0,1-.08-.07.1.1,0,0,1,0-.1l2.91-3.89a.11.11,0,0,1,.18,0l1.79,4.51a.09.09,0,0,1,0,.1A.1.1,0,0,1,265.7,296.07Zm-4.51-.8,4.37.58-1.67-4.19Z" transform="translate(-203.69 -276.79)"/><path class="cls-7" d="M256.1,291a.1.1,0,0,1-.09-.08l-1.83-5.68a.16.16,0,0,1,0-.12.12.12,0,0,1,.12-.05l5.53,1a.12.12,0,0,1,.09.08.11.11,0,0,1,0,.12L256.21,291A.11.11,0,0,1,256.1,291Zm-1.62-5.64,1.69,5.26,3.43-4.33Z" transform="translate(-203.69 -276.79)"/><path class="cls-7" d="M257.77,288.91l-2.5-.45a.13.13,0,0,1-.09-.15.12.12,0,0,1,.14-.1l2.5.45a.12.12,0,0,1,.09.15A.12.12,0,0,1,257.77,288.91Z" transform="translate(-203.69 -276.79)"/><path class="cls-7" d="M274.45,317.36h-4.84a.11.11,0,0,1-.09-.05.11.11,0,0,1,0-.11l2.42-4.36a.1.1,0,0,1,.18,0l2.42,4.36a.11.11,0,0,1,0,.11A.12.12,0,0,1,274.45,317.36Zm-4.66-.21h4.48l-2.24-4Z" transform="translate(-203.69 -276.79)"/><path class="cls-7" d="M273.69,316h-3.32a.11.11,0,0,1,0-.22h3.32a.11.11,0,0,1,0,.22Z" transform="translate(-203.69 -276.79)"/><line class="cls-9" x1="34.28" y1="19.28" x2="43.13" y2="19.06"/><line class="cls-9" x1="34.28" y1="20.48" x2="43.23" y2="20.25"/><path class="cls-9" d="M259.16,301.13s5.91,1.34,8.84,3.24" transform="translate(-203.69 -276.79)"/><path class="cls-9" d="M258.9,302.75s6.09,1.37,8.92,3.27" transform="translate(-203.69 -276.79)"/><path class="cls-7" d="M242.61,299.77a.7.7,0,1,1-.7-.7A.69.69,0,0,1,242.61,299.77Z" transform="translate(-203.69 -276.79)"/><path class="cls-7" d="M242.61,303.45a.7.7,0,1,1-.7-.7A.7.7,0,0,1,242.61,303.45Z" transform="translate(-203.69 -276.79)"/><path class="cls-7" d="M242.4,307.13a.7.7,0,1,1-.7-.69A.7.7,0,0,1,242.4,307.13Z" transform="translate(-203.69 -276.79)"/><path class="cls-7" d="M261.62,317.13a2,2,0,1,1-3.84-1,2,2,0,0,1,.41-.8,2,2,0,0,0,3.45.89A1.92,1.92,0,0,1,261.62,317.13Z" transform="translate(-203.69 -276.79)"/><path class="cls-7" d="M261.09,313.44a.55.55,0,0,1-1.06-.27.56.56,0,0,1,.67-.4A.55.55,0,0,1,261.09,313.44Z" transform="translate(-203.69 -276.79)"/><path class="cls-7" d="M261.66,310.5a.37.37,0,1,1-.26-.45A.37.37,0,0,1,261.66,310.5Z" transform="translate(-203.69 -276.79)"/><path class="cls-7" d="M261.75,307.76a.23.23,0,1,1,.44.11.23.23,0,1,1-.44-.11Z" transform="translate(-203.69 -276.79)"/><path class="cls-7" d="M258,321.28a.55.55,0,1,1,1.06.27.54.54,0,0,1-.66.39A.54.54,0,0,1,258,321.28Z" transform="translate(-203.69 -276.79)"/><path class="cls-7" d="M257.38,324.22a.37.37,0,1,1,.27.45A.37.37,0,0,1,257.38,324.22Z" transform="translate(-203.69 -276.79)"/><path class="cls-7" d="M257.29,327a.21.21,0,0,1-.27.16.22.22,0,0,1-.17-.27.23.23,0,0,1,.28-.17A.22.22,0,0,1,257.29,327Z" transform="translate(-203.69 -276.79)"/><polygon class="cls-7" points="51.68 27.45 48.56 26.77 50.85 23.84 51.68 27.45"/><polygon class="cls-7" points="50.58 32.49 47.47 31.8 49.75 28.88 50.58 32.49"/><polygon class="cls-7" points="49.3 37.19 46.19 36.51 48.47 33.58 49.3 37.19"/><path class="cls-7" d="M248.42,382.17a8.15,8.15,0,1,1-16-2,8.15,8.15,0,0,0,15.5-.46A7.91,7.91,0,0,1,248.42,382.17Z" transform="translate(-203.69 -276.79)"/><path class="cls-7" d="M229.36,396.58a.19.19,0,0,1-.1,0c-14.23-10.63-12.95-37.07-12.93-37.34a.15.15,0,0,1,.15-.14.16.16,0,0,1,.14.16c0,.26-1.29,26.55,12.82,37.09a.15.15,0,0,1,0,.2A.24.24,0,0,1,229.36,396.58Z" transform="translate(-203.69 -276.79)"/><path class="cls-7" d="M217.48,371.9s4.09-14.07,8.25-16.06C225.73,355.84,222.91,367.82,217.48,371.9Z" transform="translate(-203.69 -276.79)"/><path class="cls-7" d="M219.6,382.05s4-13.71,8-15.65C227.63,366.4,224.89,378.07,219.6,382.05Z" transform="translate(-203.69 -276.79)"/><path class="cls-7" d="M217.73,372.29s-12.66-6.13-14-10.79C203.69,361.5,214.55,366,217.73,372.29Z" transform="translate(-203.69 -276.79)"/><path class="cls-7" d="M219.6,382.05s-12.33-6-13.68-10.51C205.92,371.54,216.49,376,219.6,382.05Z" transform="translate(-203.69 -276.79)"/><path class="cls-7" d="M224.33,391.39s2.74-14.05,6.6-16.39C230.93,375,229.24,386.9,224.33,391.39Z" transform="translate(-203.69 -276.79)"/><path class="cls-7" d="M224.33,391.39s-12.8-4.72-14.54-9.1C209.79,382.29,220.7,385.63,224.33,391.39Z" transform="translate(-203.69 -276.79)"/><path class="cls-7" d="M216.59,363.91s-4.28-9.22-.05-17.72C216.54,346.19,218.88,352.1,216.59,363.91Z" transform="translate(-203.69 -276.79)"/><path class="cls-7" d="M247.42,397.84a.12.12,0,0,0,.1,0c17.17-4.57,25.82-29.58,25.9-29.84a.14.14,0,0,0-.09-.18.16.16,0,0,0-.18.09c-.08.25-8.69,25.13-25.7,29.65a.15.15,0,0,0-.11.18A.14.14,0,0,0,247.42,397.84Z" transform="translate(-203.69 -276.79)"/><path class="cls-7" d="M267.63,379.36s1.45-14.58-1.67-18C266,361.39,264.11,373.56,267.63,379.36Z" transform="translate(-203.69 -276.79)"/><path class="cls-7" d="M261.89,388s1.41-14.2-1.63-17.51C260.26,370.48,258.46,382.34,261.89,388Z" transform="translate(-203.69 -276.79)"/><path class="cls-7" d="M267.25,379.63s14-1,17.05-4.78C284.3,374.85,272.54,375,267.25,379.63Z" transform="translate(-203.69 -276.79)"/><path class="cls-7" d="M261.89,388s13.67-.95,16.61-4.65C278.5,383.34,267,383.49,261.89,388Z" transform="translate(-203.69 -276.79)"/><path class="cls-7" d="M254,394.9s2.68-14.06,0-17.67C254,377.23,251.14,388.91,254,394.9Z" transform="translate(-203.69 -276.79)"/><path class="cls-7" d="M254,394.9s13.63.39,16.88-3C270.9,391.87,259.54,390.9,254,394.9Z" transform="translate(-203.69 -276.79)"/><path class="cls-7" d="M271.43,372.28s7.41-7,6.65-16.43C278.08,355.85,273.7,360.47,271.43,372.28Z" transform="translate(-203.69 -276.79)"/></svg>